{"title":"The Sunchaser (1996) Woody Harrelson (DVDrip Eng,opt.FrSubs)","uid":4403718,"size":730228539,"categoryP":"video","categoryS":"movies","magnet":"?xt=urn:btih:3c27fecac4039e0564721337ec9f2058e901b7ea&amp;dn=The+Sunchaser+%281996%29+Woody+Harrelson+%28DVDrip+Eng%2Copt.FrSubs%29&amp;tr=udp%3A%2F%2Ftracker.openbittorrent.com%3A80&amp;tr=udp%3A%2F%2Fopen.demonii.com%3A1337&amp;tr=udp%3A%2F%2Ftracker.coppersurfer.tk%3A6969&amp;tr=udp%3A%2F%2Fexodus.desync.com%3A6969","seeders":5,"leechers":2,"uploader":"Kuthumi","files":-1,"time":1221838632,"description":"Optional French subtitles in separate idx/sub files.\n &lt;a href=&quot;\nhttp://www.imdb.com/title/tt0117781/&quot; rel=&quot;nofollow&quot; target=&quot;_NEW&quot;&gt;\nhttp://www.imdb.com/title/tt0117781/&lt;/a&gt;\n\nWith Jon Seda and Anne Bancroft\n\nDeeply touching story of a young native American (Seda) who has turned criminal and is dying of cancer. He kidnaps his doctor (Harrelson) to be taken back to the promised land of his forefathers to find eternal healing. During this action-filled road movie, Harrelson undergoes a transformation with some help from Ann Bancroft (now deceased) as a colourful New Age freak.\n\nIt is a scandal that this fantastic film has not been released on DVD in the U.S., nor is it available in northern Europe from CDONcom. I was therefore very excited when I came across this presumably non-existant DVD in a French edition with the original English soundtrack intact.\n\nWidescreen 704x272 2-pass, great stereo AC-3\nBurn tested, runs well in both my standalone DivX players.\n\n\nFormat/Info                      : Audio Video Interleave\nFile size                        : 696 MiB\nDuration                         : 1h 57mn\nOveral bit rate                  : 829 Kbps\n\nVideo\nFormat                           : MPEG-4 Visual\nFormat profile                   : Streaming Video@L1\nFormat settings, BVOP            : Yes\nFormat settings, QPel            : No\nFormat settings, GMC             : No warppoints\nFormat settings, Matrix          : Default\nMuxing mode                      : Packet Bitstream\nCodec ID                         : XVID\nCodec ID/Hint                    : XviD\nDuration                         : 1h 57mn\nBit rate                         : 691 Kbps\nWidth                            : 704 pixels\nHeight                           : 272 pixels\nDisplay aspect ratio             : 2.588\nFrame rate                       : 25.000 fps\nResolution                       : 8 bits\nColorimetry                      : 4:2:0\nScan type                        : Progressive\nBits/(Pixel*Frame)               : 0.144\nStream size                      : 580 MiB\nWriting library                  : XviD 1.2.0.dev47 (UTC 2006-11-01)\n\nAudio\nFormat                           : MPEG Audio\nFormat version                   : Version 1\nFormat profile                   : Layer 3\nCodec ID                         : 55\nCodec ID/Hint                    : MP3\nDuration                         : 1h 57mn\nBit rate mode                    : Constant\nBit rate                         : 128 Kbps\nMinimum bit rate                 : 128 Kbps\nChannel(s)                       : 2 channels\nSampling rate                    : 48.0 KHz\nResolution                       : 16 bits\nStream size                      : 107 MiB\nWriting library                  : LAME3.97 \nEncoding settings                : CBR\n\nSource: PAL retail (note that PAL/NTSC give no problems for avi files)\n\n","torrent":{"xt":"urn:btih:3c27fecac4039e0564721337ec9f2058e901b7ea","amp;dn":"The+Sunchaser+%281996%29+Woody+Harrelson+%28DVDrip+Eng%2Copt.FrSubs%29","amp;tr":["udp%3A%2F%2Ftracker.openbittorrent.com%3A80","udp%3A%2F%2Fopen.demonii.com%3A1337","udp%3A%2F%2Ftracker.coppersurfer.tk%3A6969","udp%3A%2F%2Fexodus.desync.com%3A6969"],"infoHash":"3c27fecac4039e0564721337ec9f2058e901b7ea","infoHashBuffer":{"type":"Buffer","data":[60,39,254,202,196,3,158,5,100,114,19,55,236,159,32,88,233,1,183,234]},"announce":[],"urlList":[]}}